<?xml version="1.0" standalone="no"?>
<!DOCTYPE svg PUBLIC "-//W3C//DTD SVG 20010904//EN"
 "http://www.w3.org/TR/2001/REC-SVG-20010904/DTD/svg10.dtd">
<svg version="1.0" xmlns="http://www.w3.org/2000/svg"
 width="100.000000pt" height="100.000000pt" viewBox="0 0 100.000000 100.000000"
 preserveAspectRatio="xMidYMid meet">
<metadata>
Created by potrace 1.11, written by Peter Selinger 2001-2013
</metadata>
<g transform="translate(0.000000,100.000000) scale(0.100000,-0.100000)"
fill="#000000" stroke="none">
<path d="M309 888 c-9 -7 -24 -35 -34 -63 -9 -27 -25 -56 -33 -62 -10 -8 -46
-13 -94 -13 -72 0 -80 -2 -112 -30 l-35 -31 -1 -250 c-1 -280 5 -308 62 -328
20 -7 176 -11 440 -11 446 0 462 2 487 56 14 32 15 489 1 531 -16 45 -56 63
-140 63 -39 0 -80 4 -90 10 -10 5 -26 35 -36 65 -9 31 -25 60 -35 65 -28 15
-362 13 -380 -2z m272 -203 c106 -35 177 -149 165 -261 -7 -66 -26 -104 -74
-151 -131 -127 -356 -72 -407 100 -19 64 -19 90 0 155 38 127 185 200 316 157z
m313 -57 c8 -14 7 -21 -6 -34 -30 -30 -75 9 -48 42 16 18 39 15 54 -8z"/>
<path d="M427 578 c-42 -21 -77 -80 -77 -129 0 -72 76 -149 147 -149 52 1 110
35 132 79 27 52 26 94 -1 143 -41 72 -125 95 -201 56z"/>
</g>
</svg>
